<?xml version="1.0" encoding="UTF-8"?>
<!DOCTYPE svg PUBLIC "-//W3C//DTD SVG 1.1//EN" "http://www.w3.org/Graphics/SVG/1.1/DTD/svg11.dtd">
<svg xmlns="http://www.w3.org/2000/svg" xmlns:xlink="http://www.w3.org/1999/xlink" version="1.1" width="1031px" height="541px" viewBox="-0.5 -0.5 1031 541" style="background-color: rgb(255, 255, 255);"><defs><clipPath id="mx-clip-300-40-30-30-0"><rect x="300" y="40" width="30" height="30"/></clipPath><clipPath id="mx-clip-336-40-144-30-0"><rect x="336" y="40" width="144" height="30"/></clipPath><clipPath id="mx-clip-336-70-144-30-0"><rect x="336" y="70" width="144" height="30"/></clipPath><clipPath id="mx-clip-336-100-144-30-0"><rect x="336" y="100" width="144" height="30"/></clipPath><clipPath id="mx-clip-300-130-30-30-0"><rect x="300" y="130" width="30" height="30"/></clipPath><clipPath id="mx-clip-336-130-144-30-0"><rect x="336" y="130" width="144" height="30"/></clipPath><clipPath id="mx-clip-0-230-30-30-0"><rect x="0" y="230" width="30" height="30"/></clipPath><clipPath id="mx-clip-36-230-144-30-0"><rect x="36" y="230" width="144" height="30"/></clipPath><clipPath id="mx-clip-36-260-144-30-0"><rect x="36" y="260" width="144" height="30"/></clipPath><clipPath id="mx-clip-36-290-144-30-0"><rect x="36" y="290" width="144" height="30"/></clipPath><clipPath id="mx-clip-0-320-30-30-0"><rect x="0" y="320" width="30" height="30"/></clipPath><clipPath id="mx-clip-36-320-144-30-0"><rect x="36" y="320" width="144" height="30"/></clipPath><clipPath id="mx-clip-320-250-30-30-0"><rect x="320" y="250" width="30" height="30"/></clipPath><clipPath id="mx-clip-356-250-144-30-0"><rect x="356" y="250" width="144" height="30"/></clipPath><clipPath id="mx-clip-320-280-30-30-0"><rect x="320" y="280" width="30" height="30"/></clipPath><clipPath id="mx-clip-356-280-144-30-0"><rect x="356" y="280" width="144" height="30"/></clipPath><clipPath id="mx-clip-356-310-144-30-0"><rect x="356" y="310" width="144" height="30"/></clipPath><clipPath id="mx-clip-356-340-144-30-0"><rect x="356" y="340" width="144" height="30"/></clipPath><clipPath id="mx-clip-356-370-144-30-0"><rect x="356" y="370" width="144" height="30"/></clipPath><clipPath id="mx-clip-570-30-30-30-0"><rect x="570" y="30" width="30" height="30"/></clipPath><clipPath id="mx-clip-606-30-144-30-0"><rect x="606" y="30" width="144" height="30"/></clipPath><clipPath id="mx-clip-606-60-144-30-0"><rect x="606" y="60" width="144" height="30"/></clipPath><clipPath id="mx-clip-606-90-144-30-0"><rect x="606" y="90" width="144" height="30"/></clipPath><clipPath id="mx-clip-606-120-144-30-0"><rect x="606" y="120" width="144" height="30"/></clipPath><clipPath id="mx-clip-570-150-30-30-0"><rect x="570" y="150" width="30" height="30"/></clipPath><clipPath id="mx-clip-606-150-144-30-0"><rect x="606" y="150" width="144" height="30"/></clipPath><clipPath id="mx-clip-606-180-144-30-0"><rect x="606" y="180" width="144" height="30"/></clipPath><clipPath id="mx-clip-606-210-144-30-0"><rect x="606" y="210" width="144" height="30"/></clipPath><clipPath id="mx-clip-606-240-144-30-0"><rect x="606" y="240" width="144" height="30"/></clipPath><clipPath id="mx-clip-570-270-30-30-0"><rect x="570" y="270" width="30" height="30"/></clipPath><clipPath id="mx-clip-606-270-144-30-0"><rect x="606" y="270" width="144" height="30"/></clipPath><clipPath id="mx-clip-570-300-30-30-0"><rect x="570" y="300" width="30" height="30"/></clipPath><clipPath id="mx-clip-606-300-144-30-0"><rect x="606" y="300" width="144" height="30"/></clipPath><clipPath id="mx-clip-110-450-30-30-0"><rect x="110" y="450" width="30" height="30"/></clipPath><clipPath id="mx-clip-146-450-144-30-0"><rect x="146" y="450" width="144" height="30"/></clipPath><clipPath id="mx-clip-146-480-144-30-0"><rect x="146" y="480" width="144" height="30"/></clipPath><clipPath id="mx-clip-110-510-30-30-0"><rect x="110" y="510" width="30" height="30"/></clipPath><clipPath id="mx-clip-146-510-144-30-0"><rect x="146" y="510" width="144" height="30"/></clipPath><clipPath id="mx-clip-570-410-30-30-0"><rect x="570" y="410" width="30" height="30"/></clipPath><clipPath id="mx-clip-606-410-144-30-0"><rect x="606" y="410" width="144" height="30"/></clipPath><clipPath id="mx-clip-606-440-144-30-0"><rect x="606" y="440" width="144" height="30"/></clipPath><clipPath id="mx-clip-606-470-144-30-0"><rect x="606" y="470" width="144" height="30"/></clipPath><clipPath id="mx-clip-11-40-30-30-0"><rect x="11" y="40" width="30" height="30"/></clipPath><clipPath id="mx-clip-47-40-144-30-0"><rect x="47" y="40" width="144" height="30"/></clipPath><clipPath id="mx-clip-47-70-144-30-0"><rect x="47" y="70" width="144" height="30"/></clipPath><clipPath id="mx-clip-47-100-144-30-0"><rect x="47" y="100" width="144" height="30"/></clipPath><clipPath id="mx-clip-47-130-144-30-0"><rect x="47" y="130" width="144" height="30"/></clipPath><clipPath id="mx-clip-830-80-30-30-0"><rect x="830" y="80" width="30" height="30"/></clipPath><clipPath id="mx-clip-866-80-164-30-0"><rect x="866" y="80" width="164" height="30"/></clipPath><clipPath id="mx-clip-830-110-30-30-0"><rect x="830" y="110" width="30" height="30"/></clipPath><clipPath id="mx-clip-866-110-164-30-0"><rect x="866" y="110" width="164" height="30"/></clipPath><clipPath id="mx-clip-866-140-164-30-0"><rect x="866" y="140" width="164" height="30"/></clipPath><clipPath id="mx-clip-866-170-164-30-0"><rect x="866" y="170" width="164" height="30"/></clipPath><clipPath id="mx-clip-866-200-164-30-0"><rect x="866" y="200" width="164" height="30"/></clipPath><clipPath id="mx-clip-866-230-164-30-0"><rect x="866" y="230" width="164" height="30"/></clipPath><clipPath id="mx-clip-866-260-164-30-0"><rect x="866" y="260" width="164" height="30"/></clipPath><clipPath id="mx-clip-866-290-164-30-0"><rect x="866" y="290" width="164" height="30"/></clipPath><clipPath id="mx-clip-866-320-164-30-0"><rect x="866" y="320" width="164" height="30"/></clipPath><clipPath id="mx-clip-866-350-164-30-0"><rect x="866" y="350" width="164" height="30"/></clipPath></defs><g><path d="M 300 40 L 300 10 L 480 10 L 480 40" fill="rgb(255, 255, 255)" stroke="rgb(0, 0, 0)" stroke-miterlimit="10" pointer-events="all"/><path d="M 300 40 L 300 160 L 480 160 L 480 40" fill="none" stroke="rgb(0, 0, 0)" stroke-miterlimit="10" pointer-events="none"/><path d="M 300 40 L 480 40" fill="none" stroke="rgb(0, 0, 0)" stroke-miterlimit="10" pointer-events="none"/><path d="M 330 40 L 330 70 L 330 100 L 330 130 L 330 160" fill="none" stroke="rgb(0, 0, 0)" stroke-miterlimit="10" pointer-events="none"/><g fill="rgb(0, 0, 0)" font-family="Helvetica" font-weight="bold" pointer-events="none" text-anchor="middle" font-size="12px"><text x="389.5" y="29.5">DOCTOR</text></g><path d="M 300 40 M 480 40 M 480 70 L 300 70" fill="none" stroke="rgb(0, 0, 0)" stroke-linecap="square" stroke-miterlimit="10" pointer-events="none"/><path d="M 300 40 M 330 40 M 330 70 M 300 70" fill="none" stroke="rgb(0, 0, 0)" stroke-linecap="square" stroke-miterlimit="10" pointer-events="none"/><g fill="rgb(0, 0, 0)" font-family="Helvetica" font-weight="bold" pointer-events="none" clip-path="url(#mx-clip-300-40-30-30-0)" text-anchor="middle" font-size="12px"><text x="314.5" y="59.5">PK</text></g><path d="M 330 40 M 480 40 M 480 70 M 330 70" fill="none" stroke="rgb(0, 0, 0)" stroke-linecap="square" stroke-miterlimit="10" pointer-events="none"/><g fill="rgb(0, 0, 0)" font-family="Helvetica" font-weight="bold" text-decoration="underline" pointer-events="none" clip-path="url(#mx-clip-336-40-144-30-0)" font-size="12px"><text x="337.5" y="59.5">Doc_ID      number(5)</text></g><path d="M 300 70 M 330 70 M 330 100 M 300 100" fill="none" stroke="rgb(0, 0, 0)" stroke-linecap="square" stroke-miterlimit="10" pointer-events="none"/><path d="M 330 70 M 480 70 M 480 100 M 330 100" fill="none" stroke="rgb(0, 0, 0)" stroke-linecap="square" stroke-miterlimit="10" pointer-events="none"/><g fill="rgb(0, 0, 0)" font-family="Helvetica" pointer-events="none" clip-path="url(#mx-clip-336-70-144-30-0)" font-size="12px"><text x="337.5" y="89.5">Doc_Name  varchar(20)</text></g><path d="M 300 100 M 330 100 M 330 130 M 300 130" fill="none" stroke="rgb(0, 0, 0)" stroke-linecap="square" stroke-miterlimit="10" pointer-events="none"/><path d="M 330 100 M 480 100 M 480 130 M 330 130" fill="none" stroke="rgb(0, 0, 0)" stroke-linecap="square" stroke-miterlimit="10" pointer-events="none"/><g fill="rgb(0, 0, 0)" font-family="Helvetica" pointer-events="none" clip-path="url(#mx-clip-336-100-144-30-0)" font-size="12px"><text x="337.5" y="119.5">Dept    varchar(20)</text></g><path d="M 300 130 M 330 130 M 330 160 M 300 160" fill="none" stroke="rgb(0, 0, 0)" stroke-linecap="square" stroke-miterlimit="10" pointer-events="none"/><g fill="rgb(0, 0, 0)" font-family="Helvetica" pointer-events="none" clip-path="url(#mx-clip-300-130-30-30-0)" text-anchor="middle" font-size="12px"><text x="314.5" y="149.5">FK</text></g><path d="M 330 130 M 480 130 M 480 160 M 330 160" fill="none" stroke="rgb(0, 0, 0)" stroke-linecap="square" stroke-miterlimit="10" pointer-events="none"/><g fill="rgb(0, 0, 0)" font-family="Helvetica" pointer-events="none" clip-path="url(#mx-clip-336-130-144-30-0)" font-size="12px"><text x="337.5" y="149.5">A_ID    int(5)</text></g><path d="M 0 230 L 0 200 L 180 200 L 180 230" fill="rgb(255, 255, 255)" stroke="rgb(0, 0, 0)" stroke-miterlimit="10" pointer-events="none"/><path d="M 0 230 L 0 350 L 180 350 L 180 230" fill="none" stroke="rgb(0, 0, 0)" stroke-miterlimit="10" pointer-events="none"/><path d="M 0 230 L 180 230" fill="none" stroke="rgb(0, 0, 0)" stroke-miterlimit="10" pointer-events="none"/><path d="M 30 230 L 30 260 L 30 290 L 30 320 L 30 350" fill="none" stroke="rgb(0, 0, 0)" stroke-miterlimit="10" pointer-events="none"/><g fill="rgb(0, 0, 0)" font-family="Helvetica" font-weight="bold" pointer-events="none" text-anchor="middle" font-size="12px"><text x="89.5" y="219.5">STAFF</text></g><path d="M 0 230 M 180 230 M 180 260 L 0 260" fill="none" stroke="rgb(0, 0, 0)" stroke-linecap="square" stroke-miterlimit="10" pointer-events="none"/><path d="M 0 230 M 30 230 M 30 260 M 0 260" fill="none" stroke="rgb(0, 0, 0)" stroke-linecap="square" stroke-miterlimit="10" pointer-events="none"/><g fill="rgb(0, 0, 0)" font-family="Helvetica" font-weight="bold" pointer-events="none" clip-path="url(#mx-clip-0-230-30-30-0)" text-anchor="middle" font-size="12px"><text x="14.5" y="249.5">PK</text></g><path d="M 30 230 M 180 230 M 180 260 M 30 260" fill="none" stroke="rgb(0, 0, 0)" stroke-linecap="square" stroke-miterlimit="10" pointer-events="none"/><g fill="rgb(0, 0, 0)" font-family="Helvetica" font-weight="bold" text-decoration="underline" pointer-events="none" clip-path="url(#mx-clip-36-230-144-30-0)" font-size="12px"><text x="37.5" y="249.5">S_ID         number(5)</text></g><path d="M 0 260 M 30 260 M 30 290 M 0 290" fill="none" stroke="rgb(0, 0, 0)" stroke-linecap="square" stroke-miterlimit="10" pointer-events="none"/><path d="M 30 260 M 180 260 M 180 290 M 30 290" fill="none" stroke="rgb(0, 0, 0)" stroke-linecap="square" stroke-miterlimit="10" pointer-events="none"/><g fill="rgb(0, 0, 0)" font-family="Helvetica" pointer-events="none" clip-path="url(#mx-clip-36-260-144-30-0)" font-size="12px"><text x="37.5" y="279.5">S_name    varchar(15)</text></g><path d="M 0 290 M 30 290 M 30 320 M 0 320" fill="none" stroke="rgb(0, 0, 0)" stroke-linecap="square" stroke-miterlimit="10" pointer-events="none"/><path d="M 30 290 M 180 290 M 180 320 M 30 320" fill="none" stroke="rgb(0, 0, 0)" stroke-linecap="square" stroke-miterlimit="10" pointer-events="none"/><g fill="rgb(0, 0, 0)" font-family="Helvetica" pointer-events="none" clip-path="url(#mx-clip-36-290-144-30-0)" font-size="12px"><text x="37.5" y="309.5">Salary       number(10)</text></g><path d="M 0 320 M 30 320 M 30 350 M 0 350" fill="none" stroke="rgb(0, 0, 0)" stroke-linecap="square" stroke-miterlimit="10" pointer-events="none"/><g fill="rgb(0, 0, 0)" font-family="Helvetica" pointer-events="none" clip-path="url(#mx-clip-0-320-30-30-0)" text-anchor="middle" font-size="12px"><text x="14.5" y="339.5">FK</text></g><path d="M 30 320 M 180 320 M 180 350 M 30 350" fill="none" stroke="rgb(0, 0, 0)" stroke-linecap="square" stroke-miterlimit="10" pointer-events="none"/><g fill="rgb(0, 0, 0)" font-family="Helvetica" pointer-events="none" clip-path="url(#mx-clip-36-320-144-30-0)" font-size="12px"><text x="37.5" y="339.5">A_ID          number(5)</text></g><path d="M 320 250 L 320 220 L 500 220 L 500 250" fill="rgb(255, 255, 255)" stroke="rgb(0, 0, 0)" stroke-miterlimit="10" pointer-events="none"/><path d="M 320 250 L 320 400 L 500 400 L 500 250" fill="none" stroke="rgb(0, 0, 0)" stroke-miterlimit="10" pointer-events="none"/><path d="M 320 250 L 500 250" fill="none" stroke="rgb(0, 0, 0)" stroke-miterlimit="10" pointer-events="none"/><path d="M 350 250 L 350 280 L 350 310 L 350 340 L 350 370 L 350 400" fill="none" stroke="rgb(0, 0, 0)" stroke-miterlimit="10" pointer-events="none"/><g fill="rgb(0, 0, 0)" font-family="Helvetica" font-weight="bold" pointer-events="none" text-anchor="middle" font-size="12px"><text x="409.5" y="239.5">Lab_Record</text></g><path d="M 320 250 M 500 250 M 500 280 L 320 280" fill="none" stroke="rgb(0, 0, 0)" stroke-linecap="square" stroke-miterlimit="10" pointer-events="none"/><path d="M 320 250 M 350 250 M 350 280 M 320 280" fill="none" stroke="rgb(0, 0, 0)" stroke-linecap="square" stroke-miterlimit="10" pointer-events="none"/><g fill="rgb(0, 0, 0)" font-family="Helvetica" font-weight="bold" pointer-events="none" clip-path="url(#mx-clip-320-250-30-30-0)" text-anchor="middle" font-size="12px"><text x="334.5" y="269.5">PK</text></g><path d="M 350 250 M 500 250 M 500 280 M 350 280" fill="none" stroke="rgb(0, 0, 0)" stroke-linecap="square" stroke-miterlimit="10" pointer-events="none"/><g fill="rgb(0, 0, 0)" font-family="Helvetica" font-weight="bold" text-decoration="underline" pointer-events="none" clip-path="url(#mx-clip-356-250-144-30-0)" font-size="12px"><text x="357.5" y="269.5">Lab_no         number(5)</text></g><path d="M 320 280 M 350 280 M 350 310 M 320 310" fill="none" stroke="rgb(0, 0, 0)" stroke-linecap="square" stroke-miterlimit="10" pointer-events="none"/><g fill="rgb(0, 0, 0)" font-family="Helvetica" pointer-events="none" clip-path="url(#mx-clip-320-280-30-30-0)" text-anchor="middle" font-size="12px"><text x="334.5" y="299.5">FK</text></g><path d="M 350 280 M 500 280 M 500 310 M 350 310" fill="none" stroke="rgb(0, 0, 0)" stroke-linecap="square" stroke-miterlimit="10" pointer-events="none"/><g fill="rgb(0, 0, 0)" font-family="Helvetica" pointer-events="none" clip-path="url(#mx-clip-356-280-144-30-0)" font-size="12px"><text x="357.5" y="299.5">Doc_ID          number(5)</text></g><path d="M 320 310 M 350 310 M 350 340 M 320 340" fill="none" stroke="rgb(0, 0, 0)" stroke-linecap="square" stroke-miterlimit="10" pointer-events="none"/><path d="M 350 310 M 500 310 M 500 340 M 350 340" fill="none" stroke="rgb(0, 0, 0)" stroke-linecap="square" stroke-miterlimit="10" pointer-events="none"/><g fill="rgb(0, 0, 0)" font-family="Helvetica" pointer-events="none" clip-path="url(#mx-clip-356-310-144-30-0)" font-size="12px"><text x="357.5" y="329.5">Date_of_record     date</text></g><path d="M 320 340 M 350 340 M 350 370 M 320 370" fill="none" stroke="rgb(0, 0, 0)" stroke-linecap="square" stroke-miterlimit="10" pointer-events="none"/><path d="M 350 340 M 500 340 M 500 370 M 350 370" fill="none" stroke="rgb(0, 0, 0)" stroke-linecap="square" stroke-miterlimit="10" pointer-events="none"/><g fill="rgb(0, 0, 0)" font-family="Helvetica" pointer-events="none" clip-path="url(#mx-clip-356-340-144-30-0)" font-size="12px"><text x="357.5" y="359.5">Catigory      varchar(20)</text></g><path d="M 320 370 M 350 370 M 350 400 M 320 400" fill="none" stroke="rgb(0, 0, 0)" stroke-linecap="square" stroke-miterlimit="10" pointer-events="none"/><path d="M 350 370 M 500 370 M 500 400 M 350 400" fill="none" stroke="rgb(0, 0, 0)" stroke-linecap="square" stroke-miterlimit="10" pointer-events="none"/><g fill="rgb(0, 0, 0)" font-family="Helvetica" pointer-events="none" clip-path="url(#mx-clip-356-370-144-30-0)" font-size="12px"><text x="357.5" y="389.5">Amount       number(10)</text></g><path d="M 570 30 L 570 0 L 750 0 L 750 30" fill="rgb(255, 255, 255)" stroke="rgb(0, 0, 0)" stroke-miterlimit="10" pointer-events="none"/><path d="M 570 30 L 570 330 L 750 330 L 750 30" fill="none" stroke="rgb(0, 0, 0)" stroke-miterlimit="10" pointer-events="none"/><path d="M 570 30 L 750 30" fill="none" stroke="rgb(0, 0, 0)" stroke-miterlimit="10" pointer-events="none"/><path d="M 600 30 L 600 60 L 600 90 L 600 120 L 600 150 L 600 180 L 600 210 L 600 240 L 600 270 L 600 300 L 600 330" fill="none" stroke="rgb(0, 0, 0)" stroke-miterlimit="10" pointer-events="none"/><g fill="rgb(0, 0, 0)" font-family="Helvetica" font-weight="bold" pointer-events="none" text-anchor="middle" font-size="12px"><text x="659.5" y="19.5">IN_PATIENT</text></g><path d="M 570 30 M 750 30 M 750 60 L 570 60" fill="none" stroke="rgb(0, 0, 0)" stroke-linecap="square" stroke-miterlimit="10" pointer-events="none"/><path d="M 570 30 M 600 30 M 600 60 M 570 60" fill="none" stroke="rgb(0, 0, 0)" stroke-linecap="square" stroke-miterlimit="10" pointer-events="none"/><g fill="rgb(0, 0, 0)" font-family="Helvetica" font-weight="bold" pointer-events="none" clip-path="url(#mx-clip-570-30-30-30-0)" text-anchor="middle" font-size="12px"><text x="584.5" y="49.5">PK</text></g><path d="M 600 30 M 750 30 M 750 60 M 600 60" fill="none" stroke="rgb(0, 0, 0)" stroke-linecap="square" stroke-miterlimit="10" pointer-events="none"/><g fill="rgb(0, 0, 0)" font-family="Helvetica" font-weight="bold" text-decoration="underline" pointer-events="none" clip-path="url(#mx-clip-606-30-144-30-0)" font-size="12px"><text x="607.5" y="49.5">Pat_ID        number(5)</text></g><path d="M 570 60 M 600 60 M 600 90 M 570 90" fill="none" stroke="rgb(0, 0, 0)" stroke-linecap="square" stroke-miterlimit="10" pointer-events="none"/><path d="M 600 60 M 750 60 M 750 90 M 600 90" fill="none" stroke="rgb(0, 0, 0)" stroke-linecap="square" stroke-miterlimit="10" pointer-events="none"/><g fill="rgb(0, 0, 0)" font-family="Helvetica" pointer-events="none" clip-path="url(#mx-clip-606-60-144-30-0)" font-size="12px"><text x="607.5" y="79.5">Name           varchar(20)</text></g><path d="M 570 90 M 600 90 M 600 120 M 570 120" fill="none" stroke="rgb(0, 0, 0)" stroke-linecap="square" stroke-miterlimit="10" pointer-events="none"/><path d="M 600 90 M 750 90 M 750 120 M 600 120" fill="none" stroke="rgb(0, 0, 0)" stroke-linecap="square" stroke-miterlimit="10" pointer-events="none"/><g fill="rgb(0, 0, 0)" font-family="Helvetica" pointer-events="none" clip-path="url(#mx-clip-606-90-144-30-0)" font-size="12px"><text x="607.5" y="109.5">Gender        varchar(10)</text></g><path d="M 570 120 M 600 120 M 600 150 M 570 150" fill="none" stroke="rgb(0, 0, 0)" stroke-linecap="square" stroke-miterlimit="10" pointer-events="none"/><path d="M 600 120 M 750 120 M 750 150 M 600 150" fill="none" stroke="rgb(0, 0, 0)" stroke-linecap="square" stroke-miterlimit="10" pointer-events="none"/><g fill="rgb(0, 0, 0)" font-family="Helvetica" pointer-events="none" clip-path="url(#mx-clip-606-120-144-30-0)" font-size="12px"><text x="607.5" y="139.5">Address       varchar(20)</text></g><path d="M 570 150 M 600 150 M 600 180 M 570 180" fill="none" stroke="rgb(0, 0, 0)" stroke-linecap="square" stroke-miterlimit="10" pointer-events="none"/><g fill="rgb(0, 0, 0)" font-family="Helvetica" pointer-events="none" clip-path="url(#mx-clip-570-150-30-30-0)" text-anchor="middle" font-size="12px"><text x="584.5" y="169.5">FK</text></g><path d="M 600 150 M 750 150 M 750 180 M 600 180" fill="none" stroke="rgb(0, 0, 0)" stroke-linecap="square" stroke-miterlimit="10" pointer-events="none"/><g fill="rgb(0, 0, 0)" font-family="Helvetica" pointer-events="none" clip-path="url(#mx-clip-606-150-144-30-0)" font-size="12px"><text x="607.5" y="169.5">Room_no      number(5)</text></g><path d="M 570 180 M 600 180 M 600 210 M 570 210" fill="none" stroke="rgb(0, 0, 0)" stroke-linecap="square" stroke-miterlimit="10" pointer-events="none"/><path d="M 600 180 M 750 180 M 750 210 M 600 210" fill="none" stroke="rgb(0, 0, 0)" stroke-linecap="square" stroke-miterlimit="10" pointer-events="none"/><g fill="rgb(0, 0, 0)" font-family="Helvetica" pointer-events="none" clip-path="url(#mx-clip-606-180-144-30-0)" font-size="12px"><text x="607.5" y="199.5">Date_of_discharge date</text></g><path d="M 570 210 M 600 210 M 600 240 M 570 240" fill="none" stroke="rgb(0, 0, 0)" stroke-linecap="square" stroke-miterlimit="10" pointer-events="none"/><path d="M 600 210 M 750 210 M 750 240 M 600 240" fill="none" stroke="rgb(0, 0, 0)" stroke-linecap="square" stroke-miterlimit="10" pointer-events="none"/><g fill="rgb(0, 0, 0)" font-family="Helvetica" pointer-events="none" clip-path="url(#mx-clip-606-210-144-30-0)" font-size="12px"><text x="607.5" y="229.5">Date_of_admit     date</text></g><path d="M 570 240 M 600 240 M 600 270 M 570 270" fill="none" stroke="rgb(0, 0, 0)" stroke-linecap="square" stroke-miterlimit="10" pointer-events="none"/><path d="M 600 240 M 750 240 M 750 270 M 600 270" fill="none" stroke="rgb(0, 0, 0)" stroke-linecap="square" stroke-miterlimit="10" pointer-events="none"/><g fill="rgb(0, 0, 0)" font-family="Helvetica" pointer-events="none" clip-path="url(#mx-clip-606-240-144-30-0)" font-size="12px"><text x="607.5" y="259.5">Disease        varchar(20)</text></g><path d="M 570 270 M 600 270 M 600 300 M 570 300" fill="none" stroke="rgb(0, 0, 0)" stroke-linecap="square" stroke-miterlimit="10" pointer-events="none"/><g fill="rgb(0, 0, 0)" font-family="Helvetica" pointer-events="none" clip-path="url(#mx-clip-570-270-30-30-0)" text-anchor="middle" font-size="12px"><text x="584.5" y="289.5">FK</text></g><path d="M 600 270 M 750 270 M 750 300 M 600 300" fill="none" stroke="rgb(0, 0, 0)" stroke-linecap="square" stroke-miterlimit="10" pointer-events="none"/><g fill="rgb(0, 0, 0)" font-family="Helvetica" pointer-events="none" clip-path="url(#mx-clip-606-270-144-30-0)" font-size="12px"><text x="607.5" y="289.5">Doc_ID          number(5)</text></g><path d="M 570 300 M 600 300 M 600 330 M 570 330" fill="none" stroke="rgb(0, 0, 0)" stroke-linecap="square" stroke-miterlimit="10" pointer-events="none"/><g fill="rgb(0, 0, 0)" font-family="Helvetica" pointer-events="none" clip-path="url(#mx-clip-570-300-30-30-0)" text-anchor="middle" font-size="12px"><text x="584.5" y="319.5">FK</text></g><path d="M 600 300 M 750 300 M 750 330 M 600 330" fill="none" stroke="rgb(0, 0, 0)" stroke-linecap="square" stroke-miterlimit="10" pointer-events="none"/><g fill="rgb(0, 0, 0)" font-family="Helvetica" pointer-events="none" clip-path="url(#mx-clip-606-300-144-30-0)" font-size="12px"><text x="607.5" y="319.5">Lab_no          number(5)</text></g><path d="M 110 450 L 110 420 L 290 420 L 290 450" fill="rgb(255, 255, 255)" stroke="rgb(0, 0, 0)" stroke-miterlimit="10" pointer-events="none"/><path d="M 110 450 L 110 540 L 290 540 L 290 450" fill="none" stroke="rgb(0, 0, 0)" stroke-miterlimit="10" pointer-events="none"/><path d="M 110 450 L 290 450" fill="none" stroke="rgb(0, 0, 0)" stroke-miterlimit="10" pointer-events="none"/><path d="M 140 450 L 140 480 L 140 510 L 140 540" fill="none" stroke="rgb(0, 0, 0)" stroke-miterlimit="10" pointer-events="none"/><g fill="rgb(0, 0, 0)" font-family="Helvetica" font-weight="bold" pointer-events="none" text-anchor="middle" font-size="12px"><text x="199.5" y="439.5">OUT_PATIENT</text></g><path d="M 110 450 M 290 450 M 290 480 L 110 480" fill="none" stroke="rgb(0, 0, 0)" stroke-linecap="square" stroke-miterlimit="10" pointer-events="none"/><path d="M 110 450 M 140 450 M 140 480 M 110 480" fill="none" stroke="rgb(0, 0, 0)" stroke-linecap="square" stroke-miterlimit="10" pointer-events="none"/><g fill="rgb(0, 0, 0)" font-family="Helvetica" font-weight="bold" pointer-events="none" clip-path="url(#mx-clip-110-450-30-30-0)" text-anchor="middle" font-size="12px"><text x="124.5" y="469.5">PK</text></g><path d="M 140 450 M 290 450 M 290 480 M 140 480" fill="none" stroke="rgb(0, 0, 0)" stroke-linecap="square" stroke-miterlimit="10" pointer-events="none"/><g fill="rgb(0, 0, 0)" font-family="Helvetica" font-weight="bold" text-decoration="underline" pointer-events="none" clip-path="url(#mx-clip-146-450-144-30-0)" font-size="12px"><text x="147.5" y="469.5">Pat_ID     number(5)</text></g><path d="M 110 480 M 140 480 M 140 510 M 110 510" fill="none" stroke="rgb(0, 0, 0)" stroke-linecap="square" stroke-miterlimit="10" pointer-events="none"/><path d="M 140 480 M 290 480 M 290 510 M 140 510" fill="none" stroke="rgb(0, 0, 0)" stroke-linecap="square" stroke-miterlimit="10" pointer-events="none"/><g fill="rgb(0, 0, 0)" font-family="Helvetica" pointer-events="none" clip-path="url(#mx-clip-146-480-144-30-0)" font-size="12px"><text x="147.5" y="499.5">Discharge_date   date</text></g><path d="M 110 510 M 140 510 M 140 540 M 110 540" fill="none" stroke="rgb(0, 0, 0)" stroke-linecap="square" stroke-miterlimit="10" pointer-events="none"/><g fill="rgb(0, 0, 0)" font-family="Helvetica" pointer-events="none" clip-path="url(#mx-clip-110-510-30-30-0)" text-anchor="middle" font-size="12px"><text x="124.5" y="529.5">FK</text></g><path d="M 140 510 M 290 510 M 290 540 M 140 540" fill="none" stroke="rgb(0, 0, 0)" stroke-linecap="square" stroke-miterlimit="10" pointer-events="none"/><g fill="rgb(0, 0, 0)" font-family="Helvetica" pointer-events="none" clip-path="url(#mx-clip-146-510-144-30-0)" font-size="12px"><text x="147.5" y="529.5">Lab_no           number(5)</text></g><path d="M 570 410 L 570 380 L 750 380 L 750 410" fill="rgb(255, 255, 255)" stroke="rgb(0, 0, 0)" stroke-miterlimit="10" pointer-events="none"/><path d="M 570 410 L 570 500 L 750 500 L 750 410" fill="none" stroke="rgb(0, 0, 0)" stroke-miterlimit="10" pointer-events="none"/><path d="M 570 410 L 750 410" fill="none" stroke="rgb(0, 0, 0)" stroke-miterlimit="10" pointer-events="none"/><path d="M 600 410 L 600 440 L 600 470 L 600 500" fill="none" stroke="rgb(0, 0, 0)" stroke-miterlimit="10" pointer-events="none"/><g fill="rgb(0, 0, 0)" font-family="Helvetica" font-weight="bold" pointer-events="none" text-anchor="middle" font-size="12px"><text x="659.5" y="399.5">ROOM</text></g><path d="M 570 410 M 750 410 M 750 440 L 570 440" fill="none" stroke="rgb(0, 0, 0)" stroke-linecap="square" stroke-miterlimit="10" pointer-events="none"/><path d="M 570 410 M 600 410 M 600 440 M 570 440" fill="none" stroke="rgb(0, 0, 0)" stroke-linecap="square" stroke-miterlimit="10" pointer-events="none"/><g fill="rgb(0, 0, 0)" font-family="Helvetica" font-weight="bold" pointer-events="none" clip-path="url(#mx-clip-570-410-30-30-0)" text-anchor="middle" font-size="12px"><text x="584.5" y="429.5">PK</text></g><path d="M 600 410 M 750 410 M 750 440 M 600 440" fill="none" stroke="rgb(0, 0, 0)" stroke-linecap="square" stroke-miterlimit="10" pointer-events="none"/><g fill="rgb(0, 0, 0)" font-family="Helvetica" font-weight="bold" text-decoration="underline" pointer-events="none" clip-path="url(#mx-clip-606-410-144-30-0)" font-size="12px"><text x="607.5" y="429.5">Room_no       number(5)</text></g><path d="M 570 440 M 600 440 M 600 470 M 570 470" fill="none" stroke="rgb(0, 0, 0)" stroke-linecap="square" stroke-miterlimit="10" pointer-events="none"/><path d="M 600 440 M 750 440 M 750 470 M 600 470" fill="none" stroke="rgb(0, 0, 0)" stroke-linecap="square" stroke-miterlimit="10" pointer-events="none"/><g fill="rgb(0, 0, 0)" font-family="Helvetica" pointer-events="none" clip-path="url(#mx-clip-606-440-144-30-0)" font-size="12px"><text x="607.5" y="459.5">Room_type      varchar(10)</text></g><path d="M 570 470 M 600 470 M 600 500 M 570 500" fill="none" stroke="rgb(0, 0, 0)" stroke-linecap="square" stroke-miterlimit="10" pointer-events="none"/><path d="M 600 470 M 750 470 M 750 500 M 600 500" fill="none" stroke="rgb(0, 0, 0)" stroke-linecap="square" stroke-miterlimit="10" pointer-events="none"/><g fill="rgb(0, 0, 0)" font-family="Helvetica" pointer-events="none" clip-path="url(#mx-clip-606-470-144-30-0)" font-size="12px"><text x="607.5" y="489.5">Capacity          number(5)</text></g><path d="M 11 40 L 11 10 L 191 10 L 191 40" fill="rgb(255, 255, 255)" stroke="rgb(0, 0, 0)" stroke-miterlimit="10" pointer-events="none"/><path d="M 11 40 L 11 160 L 191 160 L 191 40" fill="none" stroke="rgb(0, 0, 0)" stroke-miterlimit="10" pointer-events="none"/><path d="M 11 40 L 191 40" fill="none" stroke="rgb(0, 0, 0)" stroke-miterlimit="10" pointer-events="none"/><path d="M 41 40 L 41 70 L 41 100 L 41 130 L 41 160" fill="none" stroke="rgb(0, 0, 0)" stroke-miterlimit="10" pointer-events="none"/><g fill="rgb(0, 0, 0)" font-family="Helvetica" font-weight="bold" pointer-events="none" text-anchor="middle" font-size="12px"><text x="100.5" y="29.5">ADMINISTRATOR</text></g><path d="M 11 40 M 191 40 M 191 70 L 11 70" fill="none" stroke="rgb(0, 0, 0)" stroke-linecap="square" stroke-miterlimit="10" pointer-events="none"/><path d="M 11 40 M 41 40 M 41 70 M 11 70" fill="none" stroke="rgb(0, 0, 0)" stroke-linecap="square" stroke-miterlimit="10" pointer-events="none"/><g fill="rgb(0, 0, 0)" font-family="Helvetica" font-weight="bold" pointer-events="none" clip-path="url(#mx-clip-11-40-30-30-0)" text-anchor="middle" font-size="12px"><text x="25.5" y="59.5">PK</text></g><path d="M 41 40 M 191 40 M 191 70 M 41 70" fill="none" stroke="rgb(0, 0, 0)" stroke-linecap="square" stroke-miterlimit="10" pointer-events="none"/><g fill="rgb(0, 0, 0)" font-family="Helvetica" font-weight="bold" text-decoration="underline" pointer-events="none" clip-path="url(#mx-clip-47-40-144-30-0)" font-size="12px"><text x="48.5" y="59.5">A_ID            number(5)</text></g><path d="M 11 70 M 41 70 M 41 100 M 11 100" fill="none" stroke="rgb(0, 0, 0)" stroke-linecap="square" stroke-miterlimit="10" pointer-events="none"/><path d="M 41 70 M 191 70 M 191 100 M 41 100" fill="none" stroke="rgb(0, 0, 0)" stroke-linecap="square" stroke-miterlimit="10" pointer-events="none"/><g fill="rgb(0, 0, 0)" font-family="Helvetica" pointer-events="none" clip-path="url(#mx-clip-47-70-144-30-0)" font-size="12px"><text x="48.5" y="89.5">A_name      varchar(20)</text></g><path d="M 11 100 M 41 100 M 41 130 M 11 130" fill="none" stroke="rgb(0, 0, 0)" stroke-linecap="square" stroke-miterlimit="10" pointer-events="none"/><path d="M 41 100 M 191 100 M 191 130 M 41 130" fill="none" stroke="rgb(0, 0, 0)" stroke-linecap="square" stroke-miterlimit="10" pointer-events="none"/><g fill="rgb(0, 0, 0)" font-family="Helvetica" pointer-events="none" clip-path="url(#mx-clip-47-100-144-30-0)" font-size="12px"><text x="48.5" y="119.5">A_age          number(5)</text></g><path d="M 11 130 M 41 130 M 41 160 M 11 160" fill="none" stroke="rgb(0, 0, 0)" stroke-linecap="square" stroke-miterlimit="10" pointer-events="none"/><path d="M 41 130 M 191 130 M 191 160 M 41 160" fill="none" stroke="rgb(0, 0, 0)" stroke-linecap="square" stroke-miterlimit="10" pointer-events="none"/><g fill="rgb(0, 0, 0)" font-family="Helvetica" pointer-events="none" clip-path="url(#mx-clip-47-130-144-30-0)" font-size="12px"><text x="48.5" y="149.5">Gender        varchar(10)</text></g><path d="M 190 70 L 301.44 69.82" fill="none" stroke="rgb(0, 0, 0)" stroke-miterlimit="10" pointer-events="none"/><path d="M 301.43 65.82 L 293.44 69.83 L 301.45 73.82" fill="none" stroke="rgb(0, 0, 0)" stroke-miterlimit="10" pointer-events="none"/><path d="M 500 265 L 570 265" fill="none" stroke="rgb(0, 0, 0)" stroke-miterlimit="10" pointer-events="none"/><path d="M 570 261 L 562 265 L 570 269" fill="none" stroke="rgb(0, 0, 0)" stroke-miterlimit="10" pointer-events="none"/><path d="M 316.76 312.76 L 245 420" fill="none" stroke="rgb(0, 0, 0)" stroke-miterlimit="10" pointer-events="none"/><path d="M 248.32 422.22 L 249.45 413.35 L 241.68 417.78" fill="none" stroke="rgb(0, 0, 0)" stroke-miterlimit="10" pointer-events="none"/><path d="M 652.98 329.01 L 652.98 377.96" fill="none" stroke="rgb(0, 0, 0)" stroke-miterlimit="10" pointer-events="none"/><path d="M 656.98 337.01 L 648.98 337.01 M 648.98 329.01 L 652.98 337.01 L 656.98 329.01" fill="none" stroke="rgb(0, 0, 0)" stroke-miterlimit="10" pointer-events="none"/><path d="M 648.98 369.96 L 656.98 369.96 M 656.98 377.96 L 652.98 369.96 L 648.98 377.96" fill="none" stroke="rgb(0, 0, 0)" stroke-miterlimit="10" pointer-events="none"/><path d="M 390.15 160 L 390.74 220.36" fill="none" stroke="rgb(0, 0, 0)" stroke-miterlimit="10" pointer-events="none"/><path d="M 394.23 167.96 L 386.23 168.04 M 386.15 160.04 L 390.23 168 L 394.15 159.96" fill="none" stroke="rgb(0, 0, 0)" stroke-miterlimit="10" pointer-events="none"/><path d="M 386.66 212.4 L 394.66 212.32 M 394.74 220.32 L 390.66 212.36 L 386.74 220.4" fill="none" stroke="rgb(0, 0, 0)" stroke-miterlimit="10" pointer-events="none"/><path d="M 481.08 75.01 L 570 75" fill="none" stroke="rgb(0, 0, 0)" stroke-miterlimit="10" pointer-events="none"/><path d="M 489.08 71.01 L 489.08 79.01 M 481.08 79.01 L 489.08 75.01 L 481.08 71.01" fill="none" stroke="rgb(0, 0, 0)" stroke-miterlimit="10" pointer-events="none"/><path d="M 562 79 L 562 71 M 570 71 L 562 75 L 570 79" fill="none" stroke="rgb(0, 0, 0)" stroke-miterlimit="10" pointer-events="none"/><path d="M 830 80 L 830 50 L 1030 50 L 1030 80" fill="rgb(255, 255, 255)" stroke="rgb(0, 0, 0)" stroke-miterlimit="10" pointer-events="none"/><path d="M 830 80 L 830 380 L 1030 380 L 1030 80" fill="none" stroke="rgb(0, 0, 0)" stroke-miterlimit="10" pointer-events="none"/><path d="M 830 80 L 1030 80" fill="none" stroke="rgb(0, 0, 0)" stroke-miterlimit="10" pointer-events="none"/><path d="M 860 80 L 860 110 L 860 140 L 860 170 L 860 200 L 860 230 L 860 260 L 860 290 L 860 320 L 860 350 L 860 380" fill="none" stroke="rgb(0, 0, 0)" stroke-miterlimit="10" pointer-events="none"/><g fill="rgb(0, 0, 0)" font-family="Helvetica" font-weight="bold" pointer-events="none" text-anchor="middle" font-size="12px"><text x="929.5" y="69.5">BILL</text></g><path d="M 830 80 M 1030 80 M 1030 110 L 830 110" fill="none" stroke="rgb(0, 0, 0)" stroke-linecap="square" stroke-miterlimit="10" pointer-events="none"/><path d="M 830 80 M 860 80 M 860 110 M 830 110" fill="none" stroke="rgb(0, 0, 0)" stroke-linecap="square" stroke-miterlimit="10" pointer-events="none"/><g fill="rgb(0, 0, 0)" font-family="Helvetica" font-weight="bold" pointer-events="none" clip-path="url(#mx-clip-830-80-30-30-0)" text-anchor="middle" font-size="12px"><text x="844.5" y="99.5">PK</text></g><path d="M 860 80 M 1030 80 M 1030 110 M 860 110" fill="none" stroke="rgb(0, 0, 0)" stroke-linecap="square" stroke-miterlimit="10" pointer-events="none"/><g fill="rgb(0, 0, 0)" font-family="Helvetica" font-weight="bold" text-decoration="underline" pointer-events="none" clip-path="url(#mx-clip-866-80-164-30-0)" font-size="12px"><text x="867.5" y="99.5">Bill_no        number(10)</text></g><path d="M 830 110 M 860 110 M 860 140 M 830 140" fill="none" stroke="rgb(0, 0, 0)" stroke-linecap="square" stroke-miterlimit="10" pointer-events="none"/><g fill="rgb(0, 0, 0)" font-family="Helvetica" pointer-events="none" clip-path="url(#mx-clip-830-110-30-30-0)" text-anchor="middle" font-size="12px"><text x="844.5" y="129.5">FK</text></g><path d="M 860 110 M 1030 110 M 1030 140 M 860 140" fill="none" stroke="rgb(0, 0, 0)" stroke-linecap="square" stroke-miterlimit="10" pointer-events="none"/><g fill="rgb(0, 0, 0)" font-family="Helvetica" pointer-events="none" clip-path="url(#mx-clip-866-110-164-30-0)" font-size="12px"><text x="867.5" y="129.5">Pat_id         number(5)</text></g><path d="M 830 140 M 860 140 M 860 170 M 830 170" fill="none" stroke="rgb(0, 0, 0)" stroke-linecap="square" stroke-miterlimit="10" pointer-events="none"/><path d="M 860 140 M 1030 140 M 1030 170 M 860 170" fill="none" stroke="rgb(0, 0, 0)" stroke-linecap="square" stroke-miterlimit="10" pointer-events="none"/><g fill="rgb(0, 0, 0)" font-family="Helvetica" pointer-events="none" clip-path="url(#mx-clip-866-140-164-30-0)" font-size="12px"><text x="867.5" y="159.5">Doctor_charge number(10)</text></g><path d="M 830 170 M 860 170 M 860 200 M 830 200" fill="none" stroke="rgb(0, 0, 0)" stroke-linecap="square" stroke-miterlimit="10" pointer-events="none"/><path d="M 860 170 M 1030 170 M 1030 200 M 860 200" fill="none" stroke="rgb(0, 0, 0)" stroke-linecap="square" stroke-miterlimit="10" pointer-events="none"/><g fill="rgb(0, 0, 0)" font-family="Helvetica" pointer-events="none" clip-path="url(#mx-clip-866-170-164-30-0)" font-size="12px"><text x="867.5" y="189.5">Pat_type         varchar (20)</text></g><path d="M 830 200 M 860 200 M 860 230 M 830 230" fill="none" stroke="rgb(0, 0, 0)" stroke-linecap="square" stroke-miterlimit="10" pointer-events="none"/><path d="M 860 200 M 1030 200 M 1030 230 M 860 230" fill="none" stroke="rgb(0, 0, 0)" stroke-linecap="square" stroke-miterlimit="10" pointer-events="none"/><g fill="rgb(0, 0, 0)" font-family="Helvetica" pointer-events="none" clip-path="url(#mx-clip-866-200-164-30-0)" font-size="12px"><text x="867.5" y="219.5">Medicine_charge number(5)</text></g><path d="M 830 230 M 860 230 M 860 260 M 830 260" fill="none" stroke="rgb(0, 0, 0)" stroke-linecap="square" stroke-miterlimit="10" pointer-events="none"/><path d="M 860 230 M 1030 230 M 1030 260 M 860 260" fill="none" stroke="rgb(0, 0, 0)" stroke-linecap="square" stroke-miterlimit="10" pointer-events="none"/><g fill="rgb(0, 0, 0)" font-family="Helvetica" pointer-events="none" clip-path="url(#mx-clip-866-230-164-30-0)" font-size="12px"><text x="867.5" y="249.5">Operation_charge  number(5)</text></g><path d="M 830 260 M 860 260 M 860 290 M 830 290" fill="none" stroke="rgb(0, 0, 0)" stroke-linecap="square" stroke-miterlimit="10" pointer-events="none"/><path d="M 860 260 M 1030 260 M 1030 290 M 860 290" fill="none" stroke="rgb(0, 0, 0)" stroke-linecap="square" stroke-miterlimit="10" pointer-events="none"/><g fill="rgb(0, 0, 0)" font-family="Helvetica" pointer-events="none" clip-path="url(#mx-clip-866-260-164-30-0)" font-size="12px"><text x="867.5" y="279.5">Room_charge      number(5)</text></g><path d="M 830 290 M 860 290 M 860 320 M 830 320" fill="none" stroke="rgb(0, 0, 0)" stroke-linecap="square" stroke-miterlimit="10" pointer-events="none"/><path d="M 860 290 M 1030 290 M 1030 320 M 860 320" fill="none" stroke="rgb(0, 0, 0)" stroke-linecap="square" stroke-miterlimit="10" pointer-events="none"/><g fill="rgb(0, 0, 0)" font-family="Helvetica" pointer-events="none" clip-path="url(#mx-clip-866-290-164-30-0)" font-size="12px"><text x="867.5" y="309.5">Nursing_charge   number(5)</text></g><path d="M 830 320 M 860 320 M 860 350 M 830 350" fill="none" stroke="rgb(0, 0, 0)" stroke-linecap="square" stroke-miterlimit="10" pointer-events="none"/><path d="M 860 320 M 1030 320 M 1030 350 M 860 350" fill="none" stroke="rgb(0, 0, 0)" stroke-linecap="square" stroke-miterlimit="10" pointer-events="none"/><g fill="rgb(0, 0, 0)" font-family="Helvetica" pointer-events="none" clip-path="url(#mx-clip-866-320-164-30-0)" font-size="12px"><text x="867.5" y="339.5">Lab_charge         number(5)</text></g><path d="M 830 350 M 860 350 M 860 380 M 830 380" fill="none" stroke="rgb(0, 0, 0)" stroke-linecap="square" stroke-miterlimit="10" pointer-events="none"/><path d="M 860 350 M 1030 350 M 1030 380 M 860 380" fill="none" stroke="rgb(0, 0, 0)" stroke-linecap="square" stroke-miterlimit="10" pointer-events="none"/><g fill="rgb(0, 0, 0)" font-family="Helvetica" pointer-events="none" clip-path="url(#mx-clip-866-350-164-30-0)" font-size="12px"><text x="867.5" y="369.5">Health_card    varchar(50)</text></g><path d="M 830 215 L 751.08 213.99" fill="none" stroke="rgb(0, 0, 0)" stroke-miterlimit="10" pointer-events="none"/><path d="M 821.95 218.9 L 822.05 210.9 M 830.05 211 L 822 214.9 L 829.95 219" fill="none" stroke="rgb(0, 0, 0)" stroke-miterlimit="10" pointer-events="none"/><path d="M 759.13 210.09 L 759.03 218.09 M 751.03 217.99 L 759.08 214.09 L 751.13 209.99" fill="none" stroke="rgb(0, 0, 0)" stroke-miterlimit="10" pointer-events="none"/><path d="M 98.84 159.25 L 99 198.35" fill="none" stroke="rgb(0, 0, 0)" stroke-miterlimit="10" pointer-events="none"/><path d="M 103 198.33 L 98.97 190.35 L 95 198.37" fill="none" stroke="rgb(0, 0, 0)" stroke-miterlimit="10" pointer-events="none"/><path d="M 290 525 L 970 520 L 970 380" fill="none" stroke="rgb(0, 0, 0)" stroke-miterlimit="10" pointer-events="none"/><path d="M 297.97 520.94 L 298.03 528.94 M 290.03 529 L 298 524.94 L 289.97 521" fill="none" stroke="rgb(0, 0, 0)" stroke-miterlimit="10" pointer-events="none"/><path d="M 974 388 L 966 388 M 966 380 L 970 388 L 974 380" fill="none" stroke="rgb(0, 0, 0)" stroke-miterlimit="10" pointer-events="none"/></g></svg>